<svg xmlns="http://www.w3.org/2000/svg" xmlns:xlink="http://www.w3.org/1999/xlink" width="200" zoomAndPan="magnify" viewBox="0 0 150 37.5" height="50" preserveAspectRatio="xMidYMid meet" version="1.0"><defs><g/><clipPath id="0544cf98c6"><path d="M 7.125 7.4375 L 27.523438 7.4375 L 27.523438 31.824219 L 7.125 31.824219 Z M 7.125 7.4375 " clip-rule="nonzero"/></clipPath><clipPath id="572e8daaa9"><path d="M 13.929688 31.253906 C 14.972656 31.597656 16.164062 31.824219 17.332031 31.824219 C 18.496094 31.824219 19.621094 31.632812 20.65625 31.285156 C 20.675781 31.277344 20.699219 31.277344 20.722656 31.265625 C 24.609375 29.882812 27.46875 26.234375 27.523438 21.96875 L 27.523438 7.4375 L 7.125 7.4375 L 7.125 21.957031 C 7.179688 26.253906 10 29.90625 13.929688 31.253906 Z M 13.929688 31.253906 " clip-rule="nonzero"/></clipPath><linearGradient x1="-12.507815" gradientTransform="matrix(0.07969, 0, 0, 0.07969, 7.124721, 7.437471)" y1="12.512185" x2="268.492173" gradientUnits="userSpaceOnUse" y2="293.512163" id="8210dd6019"><stop stop-opacity="1" stop-color="rgb(0%, 28.999329%, 67.799377%)" offset="0"/><stop stop-opacity="1" stop-color="rgb(0.00457764%, 29.177856%, 67.683411%)" offset="0.0078125"/><stop stop-opacity="1" stop-color="rgb(0.0137329%, 29.536438%, 67.454529%)" offset="0.015625"/><stop stop-opacity="1" stop-color="rgb(0.0228882%, 29.89502%, 67.224121%)" offset="0.0234375"/><stop stop-opacity="1" stop-color="rgb(0.0320435%, 30.253601%, 66.995239%)" offset="0.03125"/><stop stop-opacity="1" stop-color="rgb(0.0411987%, 30.612183%, 66.764832%)" offset="0.0390625"/><stop stop-opacity="1" stop-color="rgb(0.050354%, 30.970764%, 66.53595%)" offset="0.046875"/><stop stop-opacity="1" stop-color="rgb(0.0595093%, 31.329346%, 66.305542%)" offset="0.0546875"/><stop stop-opacity="1" stop-color="rgb(0.0701904%, 31.687927%, 66.07666%)" offset="0.0625"/><stop stop-opacity="1" stop-color="rgb(0.0793457%, 32.046509%, 65.846252%)" offset="0.0703125"/><stop stop-opacity="1" stop-color="rgb(0.088501%, 32.40509%, 65.617371%)" offset="0.078125"/><stop stop-opacity="1" stop-color="rgb(0.0976562%, 32.763672%, 65.386963%)" offset="0.0859375"/><stop stop-opacity="1" stop-color="rgb(0.106812%, 33.122253%, 65.158081%)" offset="0.09375"/><stop stop-opacity="1" stop-color="rgb(0.115967%, 33.480835%, 64.927673%)" offset="0.101563"/><stop stop-opacity="1" stop-color="rgb(0.125122%, 33.839417%, 64.698792%)" offset="0.109375"/><stop stop-opacity="1" stop-color="rgb(0.135803%, 34.197998%, 64.468384%)" offset="0.117188"/><stop stop-opacity="1" stop-color="rgb(0.144958%, 34.55658%, 64.237976%)" offset="0.125"/><stop stop-opacity="1" stop-color="rgb(0.154114%, 34.915161%, 64.009094%)" offset="0.132812"/><stop stop-opacity="1" stop-color="rgb(0.163269%, 35.273743%, 63.778687%)" offset="0.140625"/><stop stop-opacity="1" stop-color="rgb(0.172424%, 35.632324%, 63.549805%)" offset="0.148437"/><stop stop-opacity="1" stop-color="rgb(0.18158%, 35.990906%, 63.319397%)" offset="0.15625"/><stop stop-opacity="1" stop-color="rgb(0.190735%, 36.349487%, 63.090515%)" offset="0.164062"/><stop stop-opacity="1" stop-color="rgb(0.201416%, 36.708069%, 62.860107%)" offset="0.171875"/><stop stop-opacity="1" stop-color="rgb(0.210571%, 37.06665%, 62.631226%)" offset="0.179688"/><stop stop-opacity="1" stop-color="rgb(0.219727%, 37.425232%, 62.400818%)" offset="0.1875"/><stop stop-opacity="1" stop-color="rgb(0.228882%, 37.783813%, 62.171936%)" offset="0.195312"/><stop stop-opacity="1" stop-color="rgb(0.238037%, 38.142395%, 61.941528%)" offset="0.203125"/><stop stop-opacity="1" stop-color="rgb(0.247192%, 38.500977%, 61.712646%)" offset="0.210938"/><stop stop-opacity="1" stop-color="rgb(0.256348%, 38.859558%, 61.482239%)" offset="0.21875"/><stop stop-opacity="1" stop-color="rgb(0.267029%, 39.21814%, 61.253357%)" offset="0.226562"/><stop stop-opacity="1" stop-color="rgb(0.276184%, 39.576721%, 61.022949%)" offset="0.234375"/><stop stop-opacity="1" stop-color="rgb(0.285339%, 39.935303%, 60.794067%)" offset="0.242187"/><stop stop-opacity="1" stop-color="rgb(0.294495%, 40.293884%, 60.56366%)" offset="0.25"/><stop stop-opacity="1" stop-color="rgb(0.30365%, 40.652466%, 60.334778%)" offset="0.257812"/><stop stop-opacity="1" stop-color="rgb(0.312805%, 41.011047%, 60.10437%)" offset="0.265625"/><stop stop-opacity="1" stop-color="rgb(0.32196%, 41.369629%, 59.875488%)" offset="0.273438"/><stop stop-opacity="1" stop-color="rgb(0.332642%, 41.72821%, 59.645081%)" offset="0.28125"/><stop stop-opacity="1" stop-color="rgb(0.341797%, 42.086792%, 59.416199%)" offset="0.289062"/><stop stop-opacity="1" stop-color="rgb(0.350952%, 42.445374%, 59.185791%)" offset="0.296875"/><stop stop-opacity="1" stop-color="rgb(0.360107%, 42.803955%, 58.956909%)" offset="0.304687"/><stop stop-opacity="1" stop-color="rgb(0.369263%, 43.162537%, 58.726501%)" offset="0.3125"/><stop stop-opacity="1" stop-color="rgb(0.378418%, 43.521118%, 58.49762%)" offset="0.320312"/><stop stop-opacity="1" stop-color="rgb(0.387573%, 43.8797%, 58.267212%)" offset="0.328125"/><stop stop-opacity="1" stop-color="rgb(0.398254%, 44.238281%, 58.03833%)" offset="0.335937"/><stop stop-opacity="1" stop-color="rgb(0.40741%, 44.596863%, 57.807922%)" offset="0.34375"/><stop stop-opacity="1" stop-color="rgb(0.416565%, 44.955444%, 57.577515%)" offset="0.351562"/><stop stop-opacity="1" stop-color="rgb(0.42572%, 45.314026%, 57.348633%)" offset="0.359375"/><stop stop-opacity="1" stop-color="rgb(0.434875%, 45.672607%, 57.118225%)" offset="0.367187"/><stop stop-opacity="1" stop-color="rgb(0.444031%, 46.031189%, 56.889343%)" offset="0.375"/><stop stop-opacity="1" stop-color="rgb(0.453186%, 46.389771%, 56.658936%)" offset="0.382812"/><stop stop-opacity="1" stop-color="rgb(0.463867%, 46.748352%, 56.430054%)" offset="0.390625"/><stop stop-opacity="1" stop-color="rgb(0.473022%, 47.106934%, 56.199646%)" offset="0.398437"/><stop stop-opacity="1" stop-color="rgb(0.482178%, 47.465515%, 55.970764%)" offset="0.40625"/><stop stop-opacity="1" stop-color="rgb(0.491333%, 47.824097%, 55.740356%)" offset="0.414062"/><stop stop-opacity="1" stop-color="rgb(0.500488%, 48.182678%, 55.511475%)" offset="0.421875"/><stop stop-opacity="1" stop-color="rgb(0.509644%, 48.54126%, 55.281067%)" offset="0.429687"/><stop stop-opacity="1" stop-color="rgb(0.518799%, 48.899841%, 55.052185%)" offset="0.4375"/><stop stop-opacity="1" stop-color="rgb(0.52948%, 49.258423%, 54.821777%)" offset="0.445312"/><stop stop-opacity="1" stop-color="rgb(0.538635%, 49.617004%, 54.592896%)" offset="0.453125"/><stop stop-opacity="1" stop-color="rgb(0.547791%, 49.975586%, 54.362488%)" offset="0.455516"/><stop stop-opacity="1" stop-color="rgb(0.552368%, 50.15564%, 54.248047%)" offset="0.460938"/><stop stop-opacity="1" stop-color="rgb(0.556946%, 50.334167%, 54.133606%)" offset="0.46875"/><stop stop-opacity="1" stop-color="rgb(0.566101%, 50.692749%, 53.903198%)" offset="0.476562"/><stop stop-opacity="1" stop-color="rgb(0.575256%, 51.051331%, 53.674316%)" offset="0.484375"/><stop stop-opacity="1" stop-color="rgb(0.584412%, 51.409912%, 53.443909%)" offset="0.492187"/><stop stop-opacity="1" stop-color="rgb(0.595093%, 51.768494%, 53.215027%)" offset="0.5"/><stop stop-opacity="1" stop-color="rgb(0.604248%, 52.127075%, 52.984619%)" offset="0.507812"/><stop stop-opacity="1" stop-color="rgb(0.613403%, 52.485657%, 52.755737%)" offset="0.515625"/><stop stop-opacity="1" stop-color="rgb(0.622559%, 52.844238%, 52.52533%)" offset="0.523438"/><stop stop-opacity="1" stop-color="rgb(0.631714%, 53.20282%, 52.296448%)" offset="0.53125"/><stop stop-opacity="1" stop-color="rgb(0.640869%, 53.561401%, 52.06604%)" offset="0.539062"/><stop stop-opacity="1" stop-color="rgb(0.650024%, 53.919983%, 51.837158%)" offset="0.544484"/><stop stop-opacity="1" stop-color="rgb(0.656128%, 54.100037%, 51.722717%)" offset="0.546875"/><stop stop-opacity="1" stop-color="rgb(0.660706%, 54.278564%, 51.60675%)" offset="0.554688"/><stop stop-opacity="1" stop-color="rgb(0.669861%, 54.637146%, 51.377869%)" offset="0.5625"/><stop stop-opacity="1" stop-color="rgb(0.679016%, 54.995728%, 51.147461%)" offset="0.570312"/><stop stop-opacity="1" stop-color="rgb(0.688171%, 55.354309%, 50.917053%)" offset="0.578125"/><stop stop-opacity="1" stop-color="rgb(0.697327%, 55.712891%, 50.688171%)" offset="0.585938"/><stop stop-opacity="1" stop-color="rgb(0.706482%, 56.071472%, 50.457764%)" offset="0.59375"/><stop stop-opacity="1" stop-color="rgb(0.715637%, 56.430054%, 50.228882%)" offset="0.601562"/><stop stop-opacity="1" stop-color="rgb(0.726318%, 56.788635%, 49.998474%)" offset="0.609375"/><stop stop-opacity="1" stop-color="rgb(0.735474%, 57.145691%, 49.769592%)" offset="0.617188"/><stop stop-opacity="1" stop-color="rgb(0.744629%, 57.504272%, 49.539185%)" offset="0.625"/><stop stop-opacity="1" stop-color="rgb(0.753784%, 57.862854%, 49.310303%)" offset="0.632812"/><stop stop-opacity="1" stop-color="rgb(0.762939%, 58.221436%, 49.079895%)" offset="0.640625"/><stop stop-opacity="1" stop-color="rgb(0.772095%, 58.580017%, 48.851013%)" offset="0.648438"/><stop stop-opacity="1" stop-color="rgb(0.78125%, 58.938599%, 48.620605%)" offset="0.65625"/><stop stop-opacity="1" stop-color="rgb(0.791931%, 59.29718%, 48.391724%)" offset="0.664062"/><stop stop-opacity="1" stop-color="rgb(0.801086%, 59.655762%, 48.161316%)" offset="0.671875"/><stop stop-opacity="1" stop-color="rgb(0.810242%, 60.014343%, 47.932434%)" offset="0.679687"/><stop stop-opacity="1" stop-color="rgb(0.819397%, 60.372925%, 47.702026%)" offset="0.6875"/><stop stop-opacity="1" stop-color="rgb(0.828552%, 60.731506%, 47.473145%)" offset="0.695312"/><stop stop-opacity="1" stop-color="rgb(0.837708%, 61.090088%, 47.242737%)" offset="0.703125"/><stop stop-opacity="1" stop-color="rgb(0.846863%, 61.448669%, 47.013855%)" offset="0.710937"/><stop stop-opacity="1" stop-color="rgb(0.857544%, 61.807251%, 46.783447%)" offset="0.71875"/><stop stop-opacity="1" stop-color="rgb(0.866699%, 62.165833%, 46.554565%)" offset="0.726562"/><stop stop-opacity="1" stop-color="rgb(0.875854%, 62.524414%, 46.324158%)" offset="0.734375"/><stop stop-opacity="1" stop-color="rgb(0.88501%, 62.882996%, 46.095276%)" offset="0.742187"/><stop stop-opacity="1" stop-color="rgb(0.894165%, 63.241577%, 45.864868%)" offset="0.75"/><stop stop-opacity="1" stop-color="rgb(0.90332%, 63.600159%, 45.635986%)" offset="0.757812"/><stop stop-opacity="1" stop-color="rgb(0.912476%, 63.95874%, 45.405579%)" offset="0.765625"/><stop stop-opacity="1" stop-color="rgb(0.923157%, 64.317322%, 45.176697%)" offset="0.773437"/><stop stop-opacity="1" stop-color="rgb(0.932312%, 64.675903%, 44.946289%)" offset="0.78125"/><stop stop-opacity="1" stop-color="rgb(0.941467%, 65.034485%, 44.717407%)" offset="0.789062"/><stop stop-opacity="1" stop-color="rgb(0.950623%, 65.393066%, 44.487%)" offset="0.796875"/><stop stop-opacity="1" stop-color="rgb(0.959778%, 65.751648%, 44.256592%)" offset="0.804688"/><stop stop-opacity="1" stop-color="rgb(0.968933%, 66.110229%, 44.02771%)" offset="0.8125"/><stop stop-opacity="1" stop-color="rgb(0.978088%, 66.468811%, 43.797302%)" offset="0.820313"/><stop stop-opacity="1" stop-color="rgb(0.98877%, 66.827393%, 43.56842%)" offset="0.828125"/><stop stop-opacity="1" stop-color="rgb(0.997925%, 67.185974%, 43.338013%)" offset="0.835938"/><stop stop-opacity="1" stop-color="rgb(1.00708%, 67.544556%, 43.109131%)" offset="0.84375"/><stop stop-opacity="1" stop-color="rgb(1.016235%, 67.903137%, 42.878723%)" offset="0.851563"/><stop stop-opacity="1" stop-color="rgb(1.025391%, 68.261719%, 42.649841%)" offset="0.859375"/><stop stop-opacity="1" stop-color="rgb(1.034546%, 68.6203%, 42.419434%)" offset="0.867188"/><stop stop-opacity="1" stop-color="rgb(1.043701%, 68.978882%, 42.190552%)" offset="0.875"/><stop stop-opacity="1" stop-color="rgb(1.054382%, 69.337463%, 41.960144%)" offset="0.882813"/><stop stop-opacity="1" stop-color="rgb(1.063538%, 69.696045%, 41.731262%)" offset="0.890625"/><stop stop-opacity="1" stop-color="rgb(1.072693%, 70.054626%, 41.500854%)" offset="0.898438"/><stop stop-opacity="1" stop-color="rgb(1.081848%, 70.413208%, 41.271973%)" offset="0.90625"/><stop stop-opacity="1" stop-color="rgb(1.091003%, 70.77179%, 41.041565%)" offset="0.914063"/><stop stop-opacity="1" stop-color="rgb(1.100159%, 71.130371%, 40.812683%)" offset="0.921875"/><stop stop-opacity="1" stop-color="rgb(1.109314%, 71.488953%, 40.582275%)" offset="0.929688"/><stop stop-opacity="1" stop-color="rgb(1.119995%, 71.847534%, 40.353394%)" offset="0.9375"/><stop stop-opacity="1" stop-color="rgb(1.12915%, 72.206116%, 40.122986%)" offset="0.945313"/><stop stop-opacity="1" stop-color="rgb(1.138306%, 72.564697%, 39.894104%)" offset="0.953125"/><stop stop-opacity="1" stop-color="rgb(1.147461%, 72.923279%, 39.663696%)" offset="0.960938"/><stop stop-opacity="1" stop-color="rgb(1.156616%, 73.28186%, 39.434814%)" offset="0.96875"/><stop stop-opacity="1" stop-color="rgb(1.165771%, 73.640442%, 39.204407%)" offset="0.976562"/><stop stop-opacity="1" stop-color="rgb(1.174927%, 73.999023%, 38.975525%)" offset="0.984375"/><stop stop-opacity="1" stop-color="rgb(1.185608%, 74.357605%, 38.745117%)" offset="0.992188"/><stop stop-opacity="1" stop-color="rgb(1.194763%, 74.716187%, 38.516235%)" offset="1"/></linearGradient><clipPath id="b06fb50660"><path d="M 24.832031 5.179688 L 27.539062 5.179688 L 27.539062 7.4375 L 24.832031 7.4375 Z M 22.574219 7.4375 L 29.796875 7.4375 L 29.796875 10.144531 L 22.574219 10.144531 Z M 24.832031 10.144531 L 27.539062 10.144531 L 27.539062 12.402344 L 24.832031 12.402344 Z M 24.832031 10.144531 " clip-rule="nonzero"/></clipPath></defs><g fill="#004aad" fill-opacity="1"><g transform="translate(34.332884, 20.679763)"><g><path d="M 1.25 -3.109375 L 0.015625 -3.109375 L 0.015625 -3.828125 L 3.359375 -3.828125 L 3.359375 -3.109375 L 2.140625 -3.109375 L 2.140625 0 L 1.25 0 Z M 1.25 -3.109375 "/></g></g></g><g fill="#004aad" fill-opacity="1"><g transform="translate(40.196237, 20.679763)"><g><path d="M 3.96875 -3.828125 L 3.96875 0 L 3.078125 0 L 3.078125 -1.5625 L 1.34375 -1.5625 L 1.34375 0 L 0.453125 0 L 0.453125 -3.828125 L 1.34375 -3.828125 L 1.34375 -2.3125 L 3.078125 -2.3125 L 3.078125 -3.828125 Z M 3.96875 -3.828125 "/></g></g></g><g fill="#004aad" fill-opacity="1"><g transform="translate(47.097526, 20.679763)"><g><path d="M 3.421875 -0.71875 L 3.421875 0 L 0.453125 0 L 0.453125 -3.828125 L 3.34375 -3.828125 L 3.34375 -3.125 L 1.328125 -3.125 L 1.328125 -2.28125 L 3.109375 -2.28125 L 3.109375 -1.59375 L 1.328125 -1.59375 L 1.328125 -0.71875 Z M 3.421875 -0.71875 "/></g></g></g><g fill="#004aad" fill-opacity="1"><g transform="translate(53.25041, 20.679763)"><g/></g></g><g fill="#004aad" fill-opacity="1"><g transform="translate(57.283722, 20.679763)"><g><path d="M 3.046875 -1.96875 L 3.84375 -1.96875 L 3.84375 -0.421875 C 3.632812 -0.265625 3.394531 -0.144531 3.125 -0.0625 C 2.851562 0.0195312 2.578125 0.0625 2.296875 0.0625 C 1.898438 0.0625 1.539062 -0.0195312 1.21875 -0.1875 C 0.90625 -0.351562 0.660156 -0.585938 0.484375 -0.890625 C 0.304688 -1.191406 0.21875 -1.535156 0.21875 -1.921875 C 0.21875 -2.296875 0.304688 -2.632812 0.484375 -2.9375 C 0.660156 -3.238281 0.910156 -3.472656 1.234375 -3.640625 C 1.554688 -3.804688 1.914062 -3.890625 2.3125 -3.890625 C 2.65625 -3.890625 2.960938 -3.832031 3.234375 -3.71875 C 3.503906 -3.613281 3.734375 -3.453125 3.921875 -3.234375 L 3.359375 -2.703125 C 3.078125 -2.992188 2.742188 -3.140625 2.359375 -3.140625 C 2.117188 -3.140625 1.898438 -3.085938 1.703125 -2.984375 C 1.515625 -2.878906 1.367188 -2.734375 1.265625 -2.546875 C 1.160156 -2.367188 1.109375 -2.160156 1.109375 -1.921875 C 1.109375 -1.679688 1.160156 -1.46875 1.265625 -1.28125 C 1.367188 -1.09375 1.515625 -0.945312 1.703125 -0.84375 C 1.890625 -0.738281 2.109375 -0.6875 2.359375 -0.6875 C 2.609375 -0.6875 2.835938 -0.742188 3.046875 -0.859375 Z M 3.046875 -1.96875 "/></g></g></g><g fill="#004aad" fill-opacity="1"><g transform="translate(63.982889, 20.679763)"><g><path d="M 2.3125 0.0625 C 1.914062 0.0625 1.554688 -0.0195312 1.234375 -0.1875 C 0.910156 -0.363281 0.660156 -0.597656 0.484375 -0.890625 C 0.304688 -1.191406 0.21875 -1.535156 0.21875 -1.921875 C 0.21875 -2.296875 0.304688 -2.628906 0.484375 -2.921875 C 0.660156 -3.222656 0.910156 -3.457031 1.234375 -3.625 C 1.554688 -3.800781 1.914062 -3.890625 2.3125 -3.890625 C 2.707031 -3.890625 3.0625 -3.800781 3.375 -3.625 C 3.695312 -3.457031 3.945312 -3.222656 4.125 -2.921875 C 4.3125 -2.628906 4.40625 -2.296875 4.40625 -1.921875 C 4.40625 -1.535156 4.3125 -1.191406 4.125 -0.890625 C 3.945312 -0.597656 3.695312 -0.363281 3.375 -0.1875 C 3.0625 -0.0195312 2.707031 0.0625 2.3125 0.0625 Z M 2.3125 -0.6875 C 2.53125 -0.6875 2.726562 -0.738281 2.90625 -0.84375 C 3.09375 -0.945312 3.238281 -1.09375 3.34375 -1.28125 C 3.445312 -1.46875 3.5 -1.679688 3.5 -1.921875 C 3.5 -2.148438 3.445312 -2.359375 3.34375 -2.546875 C 3.238281 -2.734375 3.09375 -2.878906 2.90625 -2.984375 C 2.726562 -3.085938 2.53125 -3.140625 2.3125 -3.140625 C 2.082031 -3.140625 1.875 -3.085938 1.6875 -2.984375 C 1.507812 -2.878906 1.367188 -2.734375 1.265625 -2.546875 C 1.160156 -2.359375 1.109375 -2.148438 1.109375 -1.921875 C 1.109375 -1.679688 1.160156 -1.46875 1.265625 -1.28125 C 1.367188 -1.09375 1.507812 -0.945312 1.6875 -0.84375 C 1.875 -0.738281 2.082031 -0.6875 2.3125 -0.6875 Z M 2.3125 -0.6875 "/></g></g></g><g fill="#004aad" fill-opacity="1"><g transform="translate(71.080841, 20.679763)"><g><path d="M 2.3125 0.0625 C 1.914062 0.0625 1.554688 -0.0195312 1.234375 -0.1875 C 0.910156 -0.363281 0.660156 -0.597656 0.484375 -0.890625 C 0.304688 -1.191406 0.21875 -1.535156 0.21875 -1.921875 C 0.21875 -2.296875 0.304688 -2.628906 0.484375 -2.921875 C 0.660156 -3.222656 0.910156 -3.457031 1.234375 -3.625 C 1.554688 -3.800781 1.914062 -3.890625 2.3125 -3.890625 C 2.707031 -3.890625 3.0625 -3.800781 3.375 -3.625 C 3.695312 -3.457031 3.945312 -3.222656 4.125 -2.921875 C 4.3125 -2.628906 4.40625 -2.296875 4.40625 -1.921875 C 4.40625 -1.535156 4.3125 -1.191406 4.125 -0.890625 C 3.945312 -0.597656 3.695312 -0.363281 3.375 -0.1875 C 3.0625 -0.0195312 2.707031 0.0625 2.3125 0.0625 Z M 2.3125 -0.6875 C 2.53125 -0.6875 2.726562 -0.738281 2.90625 -0.84375 C 3.09375 -0.945312 3.238281 -1.09375 3.34375 -1.28125 C 3.445312 -1.46875 3.5 -1.679688 3.5 -1.921875 C 3.5 -2.148438 3.445312 -2.359375 3.34375 -2.546875 C 3.238281 -2.734375 3.09375 -2.878906 2.90625 -2.984375 C 2.726562 -3.085938 2.53125 -3.140625 2.3125 -3.140625 C 2.082031 -3.140625 1.875 -3.085938 1.6875 -2.984375 C 1.507812 -2.878906 1.367188 -2.734375 1.265625 -2.546875 C 1.160156 -2.359375 1.109375 -2.148438 1.109375 -1.921875 C 1.109375 -1.679688 1.160156 -1.46875 1.265625 -1.28125 C 1.367188 -1.09375 1.507812 -0.945312 1.6875 -0.84375 C 1.875 -0.738281 2.082031 -0.6875 2.3125 -0.6875 Z M 2.3125 -0.6875 "/></g></g></g><g fill="#004aad" fill-opacity="1"><g transform="translate(78.178792, 20.679763)"><g><path d="M 0.453125 -3.828125 L 2.1875 -3.828125 C 2.601562 -3.828125 2.972656 -3.75 3.296875 -3.59375 C 3.617188 -3.4375 3.863281 -3.210938 4.03125 -2.921875 C 4.207031 -2.628906 4.296875 -2.296875 4.296875 -1.921875 C 4.296875 -1.535156 4.207031 -1.195312 4.03125 -0.90625 C 3.863281 -0.613281 3.617188 -0.390625 3.296875 -0.234375 C 2.972656 -0.078125 2.601562 0 2.1875 0 L 0.453125 0 Z M 2.15625 -0.734375 C 2.53125 -0.734375 2.832031 -0.835938 3.0625 -1.046875 C 3.289062 -1.265625 3.40625 -1.554688 3.40625 -1.921875 C 3.40625 -2.285156 3.289062 -2.570312 3.0625 -2.78125 C 2.832031 -2.988281 2.53125 -3.09375 2.15625 -3.09375 L 1.34375 -3.09375 L 1.34375 -0.734375 Z M 2.15625 -0.734375 "/></g></g></g><g fill="#004aad" fill-opacity="1"><g transform="translate(85.178415, 20.679763)"><g/></g></g><g fill="#004aad" fill-opacity="1"><g transform="translate(89.211727, 20.679763)"><g><path d="M 3.046875 -1.96875 L 3.84375 -1.96875 L 3.84375 -0.421875 C 3.632812 -0.265625 3.394531 -0.144531 3.125 -0.0625 C 2.851562 0.0195312 2.578125 0.0625 2.296875 0.0625 C 1.898438 0.0625 1.539062 -0.0195312 1.21875 -0.1875 C 0.90625 -0.351562 0.660156 -0.585938 0.484375 -0.890625 C 0.304688 -1.191406 0.21875 -1.535156 0.21875 -1.921875 C 0.21875 -2.296875 0.304688 -2.632812 0.484375 -2.9375 C 0.660156 -3.238281 0.910156 -3.472656 1.234375 -3.640625 C 1.554688 -3.804688 1.914062 -3.890625 2.3125 -3.890625 C 2.65625 -3.890625 2.960938 -3.832031 3.234375 -3.71875 C 3.503906 -3.613281 3.734375 -3.453125 3.921875 -3.234375 L 3.359375 -2.703125 C 3.078125 -2.992188 2.742188 -3.140625 2.359375 -3.140625 C 2.117188 -3.140625 1.898438 -3.085938 1.703125 -2.984375 C 1.515625 -2.878906 1.367188 -2.734375 1.265625 -2.546875 C 1.160156 -2.367188 1.109375 -2.160156 1.109375 -1.921875 C 1.109375 -1.679688 1.160156 -1.46875 1.265625 -1.28125 C 1.367188 -1.09375 1.515625 -0.945312 1.703125 -0.84375 C 1.890625 -0.738281 2.109375 -0.6875 2.359375 -0.6875 C 2.609375 -0.6875 2.835938 -0.742188 3.046875 -0.859375 Z M 3.046875 -1.96875 "/></g></g></g><g fill="#004aad" fill-opacity="1"><g transform="translate(95.910894, 20.679763)"><g><path d="M 2.15625 0.0625 C 1.601562 0.0625 1.175781 -0.0859375 0.875 -0.390625 C 0.570312 -0.691406 0.421875 -1.125 0.421875 -1.6875 L 0.421875 -3.828125 L 1.3125 -3.828125 L 1.3125 -1.71875 C 1.3125 -1.03125 1.59375 -0.6875 2.15625 -0.6875 C 2.4375 -0.6875 2.648438 -0.769531 2.796875 -0.9375 C 2.941406 -1.101562 3.015625 -1.363281 3.015625 -1.71875 L 3.015625 -3.828125 L 3.890625 -3.828125 L 3.890625 -1.6875 C 3.890625 -1.125 3.734375 -0.691406 3.421875 -0.390625 C 3.117188 -0.0859375 2.695312 0.0625 2.15625 0.0625 Z M 2.15625 0.0625 "/></g></g></g><g fill="#004aad" fill-opacity="1"><g transform="translate(102.70293, 20.679763)"><g><path d="M 2.96875 -0.828125 L 1.203125 -0.828125 L 0.859375 0 L -0.046875 0 L 1.65625 -3.828125 L 2.53125 -3.828125 L 4.25 0 L 3.3125 0 Z M 2.703125 -1.5 L 2.09375 -2.953125 L 1.484375 -1.5 Z M 2.703125 -1.5 "/></g></g></g><g fill="#004aad" fill-opacity="1"><g transform="translate(109.374782, 20.679763)"><g><path d="M 2.890625 0 L 2.15625 -1.0625 L 1.34375 -1.0625 L 1.34375 0 L 0.453125 0 L 0.453125 -3.828125 L 2.109375 -3.828125 C 2.453125 -3.828125 2.75 -3.769531 3 -3.65625 C 3.25 -3.539062 3.441406 -3.378906 3.578125 -3.171875 C 3.710938 -2.960938 3.78125 -2.71875 3.78125 -2.4375 C 3.78125 -2.15625 3.707031 -1.910156 3.5625 -1.703125 C 3.425781 -1.492188 3.234375 -1.335938 2.984375 -1.234375 L 3.84375 0 Z M 2.875 -2.4375 C 2.875 -2.65625 2.804688 -2.820312 2.671875 -2.9375 C 2.535156 -3.050781 2.332031 -3.109375 2.0625 -3.109375 L 1.34375 -3.109375 L 1.34375 -1.765625 L 2.0625 -1.765625 C 2.332031 -1.765625 2.535156 -1.820312 2.671875 -1.9375 C 2.804688 -2.0625 2.875 -2.226562 2.875 -2.4375 Z M 2.875 -2.4375 "/></g></g></g><g fill="#004aad" fill-opacity="1"><g transform="translate(115.877286, 20.679763)"><g><path d="M 0.453125 -3.828125 L 2.1875 -3.828125 C 2.601562 -3.828125 2.972656 -3.75 3.296875 -3.59375 C 3.617188 -3.4375 3.863281 -3.210938 4.03125 -2.921875 C 4.207031 -2.628906 4.296875 -2.296875 4.296875 -1.921875 C 4.296875 -1.535156 4.207031 -1.195312 4.03125 -0.90625 C 3.863281 -0.613281 3.617188 -0.390625 3.296875 -0.234375 C 2.972656 -0.078125 2.601562 0 2.1875 0 L 0.453125 0 Z M 2.15625 -0.734375 C 2.53125 -0.734375 2.832031 -0.835938 3.0625 -1.046875 C 3.289062 -1.265625 3.40625 -1.554688 3.40625 -1.921875 C 3.40625 -2.285156 3.289062 -2.570312 3.0625 -2.78125 C 2.832031 -2.988281 2.53125 -3.09375 2.15625 -3.09375 L 1.34375 -3.09375 L 1.34375 -0.734375 Z M 2.15625 -0.734375 "/></g></g></g><g fill="#004aad" fill-opacity="1"><g transform="translate(122.876909, 20.679763)"><g><path d="M 0.453125 -3.828125 L 1.34375 -3.828125 L 1.34375 0 L 0.453125 0 Z M 0.453125 -3.828125 "/></g></g></g><g fill="#004aad" fill-opacity="1"><g transform="translate(127.156048, 20.679763)"><g><path d="M 2.96875 -0.828125 L 1.203125 -0.828125 L 0.859375 0 L -0.046875 0 L 1.65625 -3.828125 L 2.53125 -3.828125 L 4.25 0 L 3.3125 0 Z M 2.703125 -1.5 L 2.09375 -2.953125 L 1.484375 -1.5 Z M 2.703125 -1.5 "/></g></g></g><g fill="#004aad" fill-opacity="1"><g transform="translate(133.827895, 20.679763)"><g><path d="M 3.96875 -3.828125 L 3.96875 0 L 3.234375 0 L 1.328125 -2.328125 L 1.328125 0 L 0.453125 0 L 0.453125 -3.828125 L 1.1875 -3.828125 L 3.09375 -1.5 L 3.09375 -3.828125 Z M 3.96875 -3.828125 "/></g></g></g><g fill="#14be64" fill-opacity="1"><g transform="translate(121.8593, 17.193159)"><g><path d="M 3.453125 -1.84375 L 2.328125 -1.84375 L 2.328125 -0.765625 L 1.5 -0.765625 L 1.5 -1.84375 L 0.390625 -1.84375 L 0.390625 -2.640625 L 1.5 -2.640625 L 1.5 -3.71875 L 2.328125 -3.71875 L 2.328125 -2.640625 L 3.453125 -2.640625 Z M 3.453125 -1.84375 "/></g></g></g><g clip-path="url(#0544cf98c6)"><g clip-path="url(#572e8daaa9)"><path fill="url(#8210dd6019)" d="M 7.125 7.4375 L 7.125 31.824219 L 27.523438 31.824219 L 27.523438 7.4375 Z M 7.125 7.4375 " fill-rule="nonzero"/></g></g><g clip-path="url(#b06fb50660)"><path fill="#00bf63" d="M 22.574219 5.179688 L 29.796875 5.179688 L 29.796875 12.402344 L 22.574219 12.402344 Z M 22.574219 5.179688 " fill-opacity="1" fill-rule="nonzero"/></g><g fill="#ffffff" fill-opacity="1"><g transform="translate(10.432981, 25.497825)"><g><path d="M 9.359375 -6.078125 L 11.859375 -6.078125 L 11.859375 -1.296875 C 11.210938 -0.816406 10.46875 -0.445312 9.625 -0.1875 C 8.789062 0.0703125 7.945312 0.203125 7.09375 0.203125 C 5.863281 0.203125 4.757812 -0.0546875 3.78125 -0.578125 C 2.8125 -1.097656 2.046875 -1.820312 1.484375 -2.75 C 0.929688 -3.675781 0.65625 -4.722656 0.65625 -5.890625 C 0.65625 -7.054688 0.929688 -8.101562 1.484375 -9.03125 C 2.046875 -9.957031 2.816406 -10.679688 3.796875 -11.203125 C 4.785156 -11.734375 5.898438 -12 7.140625 -12 C 8.171875 -12 9.109375 -11.820312 9.953125 -11.46875 C 10.796875 -11.125 11.503906 -10.617188 12.078125 -9.953125 L 10.328125 -8.34375 C 9.484375 -9.226562 8.46875 -9.671875 7.28125 -9.671875 C 6.519531 -9.671875 5.847656 -9.507812 5.265625 -9.1875 C 4.679688 -8.875 4.226562 -8.429688 3.90625 -7.859375 C 3.582031 -7.285156 3.421875 -6.628906 3.421875 -5.890625 C 3.421875 -5.160156 3.582031 -4.507812 3.90625 -3.9375 C 4.226562 -3.363281 4.675781 -2.914062 5.25 -2.59375 C 5.832031 -2.28125 6.5 -2.125 7.25 -2.125 C 8.03125 -2.125 8.734375 -2.289062 9.359375 -2.625 Z M 9.359375 -6.078125 "/></g></g></g></svg>